<svg width="1280" height="640" viewBox="0 0 1280 640" xmlns="http://www.w3.org/2000/svg">
  <defs>
    <linearGradient id="bg" x1="0%" y1="0%" x2="100%" y2="100%">
      <stop offset="0%" style="stop-color:#0d1117"/>
      <stop offset="100%" style="stop-color:#0c1a0c"/>
    </linearGradient>
    <linearGradient id="glow" x1="0%" y1="0%" x2="100%" y2="100%">
      <stop offset="0%" style="stop-color:#6daa45;stop-opacity:0.18"/>
      <stop offset="100%" style="stop-color:#6daa45;stop-opacity:0.04"/>
    </linearGradient>
  </defs>
  <rect width="1280" height="640" fill="url(#bg)"/>
  <ellipse cx="980" cy="160" rx="460" ry="300" fill="url(#glow)"/>
  <ellipse cx="260" cy="500" rx="280" ry="180" fill="#6daa45" fill-opacity="0.05"/>
  <pattern id="dots" x="0" y="0" width="40" height="40" patternUnits="userSpaceOnUse">
    <circle cx="1" cy="1" r="1" fill="#6daa45" fill-opacity="0.07"/>
  </pattern>
  <rect width="1280" height="640" fill="url(#dots)"/>
  <rect x="0" y="0" width="1280" height="640" fill="none" stroke="#6daa45" stroke-opacity="0.12" stroke-width="1.5"/>
  <rect x="0" y="628" width="1280" height="4" fill="#6daa45" fill-opacity="0.55"/>
  <rect x="0" y="0" width="4" height="640" fill="#6daa45" fill-opacity="0.35"/>
  <circle cx="188" cy="310" r="96" fill="#6daa45" fill-opacity="0.10"/>
  <circle cx="188" cy="310" r="78" fill="none" stroke="#6daa45" stroke-opacity="0.25" stroke-width="1.5"/>
  <circle cx="188" cy="298" r="32" stroke="#6daa45" stroke-width="2.5" fill="none" stroke-opacity="0.9"/>
  <line x1="160" y1="298" x2="216" y2="298" stroke="#6daa45" stroke-opacity="0.6" stroke-width="1.5"/>
  <ellipse cx="188" cy="298" rx="15" ry="32" stroke="#6daa45" stroke-opacity="0.6" stroke-width="1.5" fill="none"/>
  <text x="80" y="110" font-family="'Segoe UI',system-ui,sans-serif" font-size="20" fill="#6daa45" fill-opacity="0.85" font-weight="600" letter-spacing="4">SAMOTECH</text>
  <line x1="80" y1="118" x2="240" y2="118" stroke="#6daa45" stroke-opacity="0.3" stroke-width="1"/>
  <text x="320" y="295" font-family="'Segoe UI',system-ui,sans-serif" font-size="82" fill="#ffffff" font-weight="700" letter-spacing="-2">Portfolio</text>
  <text x="322" y="358" font-family="'Segoe UI',system-ui,sans-serif" font-size="28" fill="#ffffff" fill-opacity="0.60" font-weight="300">Ossama Hashim — Full-Stack Developer</text>
  <rect x="320" y="388" width="100" height="3" fill="#6daa45" fill-opacity="0.85" rx="2"/>
  <text x="80" y="590" font-family="'Segoe UI',system-ui,sans-serif" font-size="18" fill="#6daa45" fill-opacity="0.7">github.com/SamoTech</text>
</svg>